<?xml version="1.0" standalone="no"?>
<!DOCTYPE svg PUBLIC "-//W3C//DTD SVG 20010904//EN"
 "http://www.w3.org/TR/2001/REC-SVG-20010904/DTD/svg10.dtd">
<svg version="1.0" xmlns="http://www.w3.org/2000/svg"
 width="32.000000pt" height="24.000000pt" viewBox="0 0 32.000000 24.000000"
 preserveAspectRatio="xMidYMid meet">

<g transform="translate(0.000000,24.000000) scale(0.100000,-0.100000)"
fill="#000000" stroke="none">
<path d="M73 195 c-50 -21 -60 -89 -18 -130 26 -27 75 -34 75 -11 0 9 -7 12
-19 9 -24 -6 -61 29 -61 57 0 30 43 70 68 63 20 -5 42 -48 42 -83 0 -25 43
-60 73 -60 54 0 93 71 66 119 -24 43 -99 65 -99 29 0 -6 7 -7 16 -4 9 4 27 -1
40 -9 44 -29 22 -115 -29 -115 -21 0 -47 38 -47 68 0 57 -52 90 -107 67z"/>
</g>
</svg>
